# xmcd
#
# Track frame offsets:
#	150
#	12177
#	24413
#	40079
#	47806
#	63505
#	78113
#	88865
#	105515
#	117386
#	129078
#	144453
#	154972
#	166993
#	179188
#	191046
#	207527
#	221676
#
# Disc length: 3130 seconds
#
# Revision: 1
# Processed by: cddbd v1.5.2PL0 Copyright (c) Steve Scherf et al.
# Submitted via: audiograbber 1.83.01
#
DISCID=fd0c3812
DTITLE=Adlerspitz-Buebä - Fäscht im Adlernäscht
DYEAR=1999
DGENRE=Country
TTITLE0=Fäscht im Adlernäscht
TTITLE1=Stimmig i dr Obstmühli
TTITLE2=De Köbel und de Chrigel und de Sepp
TTITLE3=Morgäluft
TTITLE4=Die Försterliesel
TTITLE5=Es Suppehuehn
TTITLE6=Nid luege, nur Auge mache
TTITLE7=Die Fischerin
TTITLE8=Henry tanzt Polka-Fox
TTITLE9=En alte Schächetaler
TTITLE10=Bajazzo
TTITLE11=D'Wält-Uruffüehrig
TTITLE12=Macht's ächt öppis?
TTITLE13=Nidwaldnerchoscht
TTITLE14=Z'Studio Hedy
TTITLE15=Chumm mit uf d'Bärge ue
TTITLE16=Bim Gritli z'Hüneberg
TTITLE17=Für's Drusberg-Reiseteam
EXTD=YEAR: 1999
EXTT0=
EXTT1=
EXTT2=
EXTT3=
EXTT4=
EXTT5=
EXTT6=
EXTT7=
EXTT8=
EXTT9=
EXTT10=
EXTT11=
EXTT12=
EXTT13=
EXTT14=
EXTT15=
EXTT16=
EXTT17=
PLAYORDER=
